<svg width="100" height="47" viewBox="0 0 100 47" fill="none" xmlns="http://www.w3.org/2000/svg">
<g clip-path="url(#clip0_71_826)">
<path d="M0.744325 0.744141H36.0849V14.727H23.7709V11.7951H16.3736V18.6512H26.6352V29.1158H16.3961V34.7541H19.4182V45.5344H0.699219V34.7541H3.90174V11.75H0.699219L0.744325 0.744141ZM39.1972 0.744141H57.9162V11.7049H54.849V34.709H57.9162V45.4893H39.1972V34.709H42.3095V11.7049H39.1972V0.744141ZM60.8932 0.744141H78.259V11.7049H76.3645V34.2579L76.8156 34.709H83.2206L83.6717 34.2579V11.7049H81.7773V0.744141H99.1431V11.7049H96.0308V37.1898L88.0019 45.5344H72.1246L64.0957 37.1898V11.7049H60.8932V0.744141Z" fill="#5B5B5B" stroke="#DEDEDE" stroke-width="3.3"/>
</g>
<defs>
<clipPath id="clip0_71_826">
<rect width="100" height="46.369" fill="white"/>
</clipPath>
</defs>
</svg>
